# xmcd
#
# Track frame offsets: 
#        150
#        10125
#        18652
#        29455
#        42820
#        55797
#        66382
#        78829
#        91353
#        101347
#        111255
#        121790
#        131000
#        142448
#        153153
#        166941
#        178910
#        191788
#        204483
#        214730
#        225931
#        239043
#        248269
#        261817
#        271421
#        282518
#
# Disc length: 3920 seconds
#
# Revision: 0
# Processed by: cddbd v1.5.2PL0 Copyright (c) Steve Scherf et al.
# Submitted via: ExactAudioCopyFreeDBPlugin 1.0
#
DISCID=710f4e1a
DTITLE=Lazy Lester - The Complete Excello Records Singles 1956-1962
DYEAR=2017
DGENRE=Blues
TTITLE0=I'm Gonna Leave You Baby
TTITLE1=Lester's Stomp
TTITLE2=Go Ahead
TTITLE3=They Call Me Lazy
TTITLE4=I Told My Little Woman
TTITLE5=Tell Me Pretty Baby
TTITLE6=I'm A Lover, Not A Fighter
TTITLE7=Sugar Coated Love
TTITLE8=I Hear You Knockin'
TTITLE9=Through The Goodness Of My Heart
TTITLE10=I Love You I Need You
TTITLE11=Late In The Evening
TTITLE12=A Real Combination For Love
TTITLE13=Bye Bye Baby, Gonna Call It Gone
TTITLE14=You Got Me Where You Want Me
TTITLE15=Patrol Blues
TTITLE16=(I'm So Glad) My Baby's Back Home
TTITLE17=Whoa Now
TTITLE18=If You Think I've Lost You
TTITLE19=I'm So Tired
TTITLE20=My Home Is A Prison (in session-Slim Harpo)
TTITLE21=Roll On Ole Mule (in session-Tabby Thomas)
TTITLE22=Nothing But The Devil (in session-Lightnin' Slim)
TTITLE23=Gonna Stick To You Baby (in session-Lonesome Sundown)
TTITLE24=Hoodo Party (in session-Tabby Thomas)
TTITLE25=Rooster Blues (in session-Lightnin' Slim)
EXTD=
EXTT0=
EXTT1=
EXTT2=
EXTT3=
EXTT4=
EXTT5=
EXTT6=
EXTT7=
EXTT8=
EXTT9=
EXTT10=
EXTT11=
EXTT12=
EXTT13=
EXTT14=
EXTT15=
EXTT16=
EXTT17=
EXTT18=
EXTT19=
EXTT20=
EXTT21=
EXTT22=
EXTT23=
EXTT24=
EXTT25=
PLAYORDER=
